<svg width="102" height="165" viewBox="0 0 102 165" fill="none" xmlns="http://www.w3.org/2000/svg">
<g clip-path="url(#clip0_2_2)">
<path d="M97.0323 164.299H5.01989C2.56742 164.299 0.579895 162.314 0.579895 159.862C0.579895 157.409 2.56742 155.422 5.01989 155.422H97.0323C99.4847 155.422 101.472 157.409 101.472 159.862C101.472 162.314 99.4847 164.299 97.0323 164.299Z" fill="black"/>
<path d="M96.9774 9.87385H4.96508C2.51261 9.87385 0.525085 7.88635 0.525085 5.43386C0.525085 2.98137 2.51261 0.996376 4.96508 0.996376H96.9774C99.4299 0.996376 101.417 2.98137 101.417 5.43386C101.417 7.88635 99.4299 9.87385 96.9774 9.87385Z" fill="black"/>
<path d="M91.8349 38.5551V15.2402H10.165V37.5101C10.165 46.3451 13.6301 54.8276 19.8176 61.1326L34.0125 75.5975C38.0775 79.74 38.0775 86.3775 34.0125 90.52L19.8176 104.985C13.6301 111.29 10.165 119.772 10.165 128.607V150.757H91.8349V127.562C91.8349 119.352 88.8399 111.425 83.4124 105.265L70.0499 90.1C66.5024 86.075 66.5024 80.04 70.0499 76.015L83.4124 60.8526C88.8399 54.6926 91.8349 46.7651 91.8349 38.5551Z" fill="#DEDEDE"/>
<path d="M52.2501 37.2201C52.2501 37.2201 52.2651 50.0501 52.2826 66.1925" stroke="black" stroke-width="7.49998" stroke-linecap="round" stroke-linejoin="round"/>
<mask id="mask0_2_2" style="mask-type:luminance" maskUnits="userSpaceOnUse" x="11" y="15" width="82" height="71">
<path d="M91.2376 31.7021C91.2376 31.7021 68.5528 10.012 48.0487 16.2624C26.5063 22.7221 11.0201 30.4674 11.0201 30.4674V85.747H92.3974L91.2376 31.7021Z" fill="white"/>
</mask>
<g mask="url(#mask0_2_2)">
<path d="M45.19 68.7195L38.7625 62.502L26.7026 50.2121C22.4351 45.8646 20.0851 40.1121 20.0851 34.0196V30.1196C20.0851 29.0446 20.9576 28.1721 22.0326 28.1721H79.9649C81.0399 28.1721 81.9124 29.0446 81.9124 30.1196V35.1671C81.9124 40.7946 79.8624 46.2196 76.14 50.4471L65.615 62.392C65.615 62.392 53.9575 77.647 45.19 68.7195Z" fill="black"/>
</g>
</g>
<defs>
<clipPath id="clip0_2_2">
<rect width="102" height="165" fill="white"/>
</clipPath>
</defs>
</svg>
