<svg width="102" height="165" viewBox="0 0 102 165" fill="none" xmlns="http://www.w3.org/2000/svg">
<g clip-path="url(#clip0_2_38)">
<path d="M97.0323 0.70084H5.01989C2.56742 0.70084 0.579895 2.68583 0.579895 5.13832C0.579895 7.59082 2.56742 9.57831 5.01989 9.57831H97.0323C99.4847 9.57831 101.472 7.59082 101.472 5.13832C101.472 2.68583 99.4847 0.70084 97.0323 0.70084Z" fill="#DEDEDE"/>
<path d="M96.9774 155.126H4.96508C2.51261 155.126 0.525085 157.114 0.525085 159.566C0.525085 162.019 2.51261 164.004 4.96508 164.004H96.9774C99.4299 164.004 101.417 162.019 101.417 159.566C101.417 157.114 99.4299 155.126 96.9774 155.126Z" fill="#DEDEDE"/>
<path d="M91.8349 126.445V149.76H10.165V127.49C10.165 118.655 13.6301 110.172 19.8176 103.867L34.0125 89.4025C38.0775 85.26 38.0775 78.6225 34.0125 74.48L19.8176 60.015C13.6301 53.7101 10.165 45.2276 10.165 36.3926V14.2426H91.8349V37.4376C91.8349 45.6476 88.8399 53.5751 83.4124 59.7351L70.0499 74.9C66.5024 78.925 66.5024 84.96 70.0499 88.985L83.4124 104.147C88.8399 110.307 91.8349 118.235 91.8349 126.445Z" fill="#DEDEDE"/>
<path d="M52.2501 127.78C52.2501 127.78 52.2651 114.95 52.2826 98.8075" stroke="#DEDEDE" stroke-width="7.49998" stroke-linecap="round" stroke-linejoin="round"/>
<mask id="mask0_2_38" style="mask-type:luminance" maskUnits="userSpaceOnUse" x="11" y="79" width="82" height="71">
<path d="M91.2376 133.298C91.2376 133.298 68.5528 154.988 48.0487 148.738C26.5063 142.278 11.0201 134.533 11.0201 134.533V79.253H92.3974L91.2376 133.298Z" fill="white"/>
</mask>
<g mask="url(#mask0_2_38)">
<path d="M45.19 96.2805L38.7625 102.498L26.7026 114.788C22.4351 119.135 20.0851 124.888 20.0851 130.98V134.88C20.0851 135.955 20.9576 136.828 22.0326 136.828H79.9649C81.0399 136.828 81.9124 135.955 81.9124 134.88V129.833C81.9124 124.205 79.8624 118.78 76.14 114.553L65.615 102.608C65.615 102.608 53.9575 87.353 45.19 96.2805Z" fill="#DEDEDE"/>
</g>
</g>
<defs>
<clipPath id="clip0_2_38">
<rect width="102" height="165" fill="white"/>
</clipPath>
</defs>
</svg>
